<?xml version="1.0" standalone="no"?>
<!DOCTYPE svg PUBLIC "-//W3C//DTD SVG 20010904//EN"
 "http://www.w3.org/TR/2001/REC-SVG-20010904/DTD/svg10.dtd">
<svg version="1.0" xmlns="http://www.w3.org/2000/svg"
 width="1920.000000pt" height="1920.000000pt" viewBox="0 0 1920.000000 1920.000000"
 preserveAspectRatio="xMidYMid meet">
<metadata>
Created by potrace 1.14, written by Peter Selinger 2001-2017
</metadata>
<g transform="translate(0.000000,1920.000000) scale(0.100000,-0.100000)"
fill="#000000" stroke="none">
<path d="M0 16090 l0 -310 285 0 285 0 0 310 0 310 -285 0 -285 0 0 -310z"/>
<path d="M870 16090 l0 -310 7305 0 7305 0 0 310 0 310 -7305 0 -7305 0 0
-310z"/>
<path d="M15780 16090 l0 -310 310 0 310 0 0 310 0 310 -310 0 -310 0 0 -310z"/>
<path d="M0 8175 l0 -7305 285 0 285 0 0 7305 0 7305 -285 0 -285 0 0 -7305z"/>
<path d="M870 8175 l0 -7305 7305 0 7305 0 0 7305 0 7305 -7305 0 -7305 0 0
-7305z m9054 6333 c8 -107 116 -2275 116 -2313 l0 -25 -160 0 c-157 0 -160 0
-165 23 -3 12 -17 78 -31 147 -82 401 -191 751 -296 953 -118 226 -311 410
-567 538 -117 58 -238 92 -421 119 -294 42 -324 43 -2112 47 l-1728 4 0 -2180
0 -2181 1253 0 c735 0 1328 4 1437 10 417 24 720 95 901 211 305 198 495 626
550 1242 l12 137 153 0 154 0 0 -1920 0 -1920 -155 0 c-85 0 -155 3 -155 8 0
20 -62 394 -85 512 -80 412 -149 577 -309 736 -169 167 -369 267 -647 324
-256 52 -265 53 -1736 57 l-1373 4 0 -2023 c0 -1259 4 -2078 10 -2168 20 -283
49 -381 144 -487 90 -99 198 -150 388 -180 104 -17 210 -18 1393 -18 1310 0
1397 2 1745 41 504 56 823 198 1193 528 322 289 743 887 1043 1483 173 344
333 572 564 803 440 440 955 688 1610 777 105 14 199 18 425 18 403 -1 551
-23 1055 -160 366 -99 404 -107 475 -95 131 21 243 102 286 205 l23 55 87 0
88 0 5 -52 c3 -29 19 -402 36 -828 16 -426 33 -823 36 -882 l7 -108 -100 0
-99 0 -28 88 c-204 636 -530 1057 -989 1277 -333 160 -725 210 -1127 144 -747
-123 -1326 -725 -1544 -1604 -108 -433 -136 -1039 -70 -1490 64 -439 216 -820
453 -1135 88 -117 327 -351 441 -433 113 -80 358 -204 489 -247 341 -111 753
-127 1156 -44 438 91 859 323 1271 700 l91 83 78 -79 78 -79 -39 -48 c-70 -86
-237 -254 -339 -340 -138 -116 -393 -284 -560 -370 -279 -142 -524 -221 -865
-280 -100 -17 -375 -18 -6082 -20 l-5978 -3 0 150 0 150 5127 0 5128 0 -99 56
c-208 117 -379 248 -592 454 -231 224 -401 349 -609 450 -245 119 -472 169
-965 212 -99 8 -1186 12 -4062 15 l-3928 4 0 149 0 150 219 0 c419 0 614 40
896 183 104 53 131 72 206 147 177 177 224 351 249 928 16 363 8 7964 -8 8122
-47 450 -107 650 -233 771 -108 104 -261 185 -434 229 -157 40 -272 51 -587
57 l-308 6 0 148 0 149 4254 0 4254 0 6 -92z"/>
<path d="M15780 8175 l0 -7305 310 0 310 0 0 7305 0 7305 -310 0 -310 0 0
-7305z"/>
<path d="M0 285 l0 -285 285 0 285 0 0 285 0 285 -285 0 -285 0 0 -285z"/>
<path d="M870 285 l0 -285 7305 0 7305 0 0 285 0 285 -7305 0 -7305 0 0 -285z"/>
<path d="M15780 285 l0 -285 310 0 310 0 0 285 0 285 -310 0 -310 0 0 -285z"/>
</g>
</svg>
