<?xml version="1.0" standalone="no"?>
<!DOCTYPE svg PUBLIC "-//W3C//DTD SVG 20010904//EN"
 "http://www.w3.org/TR/2001/REC-SVG-20010904/DTD/svg10.dtd">
<svg version="1.0" xmlns="http://www.w3.org/2000/svg"
 width="1920.000000pt" height="1920.000000pt" viewBox="0 0 1920.000000 1920.000000"
 preserveAspectRatio="xMidYMid meet">

<g transform="translate(0.000000,1920.000000) scale(0.100000,-0.100000)"
fill="#000000" stroke="none">
<path d="M0 16090 l0 -310 285 0 285 0 0 310 0 310 -285 0 -285 0 0 -310z"/>
<path d="M870 16090 l0 -310 7305 0 7305 0 0 310 0 310 -7305 0 -7305 0 0
-310z"/>
<path d="M15780 16090 l0 -310 310 0 310 0 0 310 0 310 -310 0 -310 0 0 -310z"/>
<path d="M0 8175 l0 -7305 285 0 285 0 0 7305 0 7305 -285 0 -285 0 0 -7305z"/>
<path d="M870 8175 l0 -7305 268 0 c308 0 11700 0 13285 0 l1057 0 0 7305 0
7305 -7305 0 -7305 0 0 -7305z m9050 6421 c0 -2 27 -538 60 -1192 33 -654 60
-1199 60 -1211 0 -23 -1 -23 -160 -23 -88 0 -160 2 -160 5 0 43 -122 544 -174
717 -129 424 -292 667 -569 849 -171 113 -295 161 -507 198 -317 56 -510 61
-2317 61 l-1593 0 0 -2181 0 -2180 1378 4 c1224 3 1393 5 1522 21 437 51 673
143 846 328 219 235 349 599 395 1111 l12 137 153 0 154 0 0 -1920 0 -1920
-155 0 c-85 0 -155 3 -155 7 0 22 -56 363 -81 493 -36 188 -91 400 -123 480
-88 217 -306 418 -562 521 -172 69 -395 111 -689 129 -92 6 -698 10 -1427 10
l-1268 0 0 -2027 c0 -2033 3 -2224 36 -2403 37 -203 182 -355 384 -403 169
-41 197 -42 1520 -42 1332 0 1439 3 1775 45 294 38 457 82 660 180 416 201
786 579 1193 1216 130 204 274 455 342 599 390 819 1088 1379 1934 1550 248
50 352 59 666 59 401 1 561 -23 1058 -158 376 -102 410 -109 486 -95 130 23
234 100 277 204 l23 55 87 0 87 0 6 -62 c3 -35 19 -409 36 -833 16 -423 33
-816 36 -872 l6 -103 -99 0 -99 0 -28 88 c-202 628 -519 1044 -971 1269 -347
174 -809 227 -1220 139 -438 -94 -805 -343 -1090 -741 -338 -473 -499 -1105
-482 -1895 11 -505 91 -867 275 -1240 108 -220 249 -408 445 -596 137 -131
263 -223 417 -303 204 -106 379 -163 610 -198 155 -23 478 -23 645 1 546 78
1003 312 1480 758 l61 57 79 -79 78 -79 -38 -48 c-61 -76 -292 -302 -385 -377
-147 -117 -377 -264 -545 -346 -284 -140 -509 -211 -850 -268 -92 -15 -552
-17 -6072 -19 l-5973 -3 0 150 0 150 2423 0 c1332 0 3639 0 5127 0 l2705 0
-88 49 c-208 117 -396 261 -597 455 -235 229 -402 352 -615 457 -242 118 -454
165 -960 211 -96 8 -1152 12 -4062 15 l-3933 4 0 148 0 149 283 5 c321 5 404
16 590 78 64 21 172 67 240 101 106 54 133 73 208 148 176 176 225 354 249
920 16 362 8 7973 -8 8130 -47 447 -107 648 -228 767 -106 103 -239 176 -417
227 -156 45 -270 57 -604 63 l-313 6 0 148 0 149 4255 0 c2340 0 4255 -2 4255
-4z"/>
<path d="M15780 8175 l0 -7305 310 0 310 0 0 7305 0 7305 -310 0 -310 0 0
-7305z"/>
<path d="M0 285 l0 -285 285 0 285 0 0 285 0 285 -285 0 -285 0 0 -285z"/>
<path d="M870 285 l0 -285 7305 0 7305 0 0 285 0 285 -7305 0 -7305 0 0 -285z"/>
<path d="M15780 285 l0 -285 310 0 310 0 0 285 0 285 -310 0 -310 0 0 -285z"/>
</g>
</svg>
